<?xml version="1.0" encoding="UTF-8" standalone="no"?>
<!-- Created with Inkscape (http://www.inkscape.org/) -->

<svg
   width="200mm"
   height="300mm"
   viewBox="0 0 199.99999 300"
   version="1.1"
   id="svg5"
   inkscape:version="1.1.2 (b8e25be833, 2022-02-05)"
   sodipodi:docname="g0.svg"
   xmlns:inkscape="http://www.inkscape.org/namespaces/inkscape"
   xmlns:sodipodi="http://sodipodi.sourceforge.net/DTD/sodipodi-0.dtd"
   xmlns="http://www.w3.org/2000/svg"
   xmlns:svg="http://www.w3.org/2000/svg">
  <sodipodi:namedview
     id="namedview7"
     pagecolor="#5f5f5f"
     bordercolor="#666666"
     borderopacity="1.0"
     inkscape:pageshadow="2"
     inkscape:pageopacity="0"
     inkscape:pagecheckerboard="0"
     inkscape:document-units="mm"
     showgrid="false"
     width="200mm"
     units="mm"
     inkscape:zoom="0.64750959"
     inkscape:cx="331.26922"
     inkscape:cy="564.4704"
     inkscape:window-width="1920"
     inkscape:window-height="1001"
     inkscape:window-x="-9"
     inkscape:window-y="-9"
     inkscape:window-maximized="1"
     inkscape:current-layer="layer1"
     showguides="false" />
  <defs
     id="defs2">
    <rect
       x="55.597632"
       y="65.636094"
       width="142.08284"
       height="176.83136"
       id="rect6486" />
    <rect
       x="173.46312"
       y="618.43373"
       width="60.334998"
       height="340.89274"
       id="rect59061" />
    <rect
       x="134.24537"
       y="146.31237"
       width="518.88098"
       height="828.09784"
       id="rect51299" />
    <rect
       x="143.29562"
       y="217.20599"
       width="497.76373"
       height="580.72435"
       id="rect28727" />
    <rect
       x="266.98236"
       y="467.59623"
       width="196.08874"
       height="197.59712"
       id="rect2865" />
    <rect
       x="55.597632"
       y="65.636094"
       width="105.01775"
       height="138.22189"
       id="rect18968" />
    <rect
       x="55.597632"
       y="65.636094"
       width="105.01775"
       height="138.22189"
       id="rect18974" />
    <rect
       x="55.597632"
       y="65.636094"
       width="105.01775"
       height="138.22189"
       id="rect18980" />
    <rect
       x="55.597632"
       y="65.636094"
       width="142.08284"
       height="176.83136"
       id="rect26911" />
    <rect
       x="55.597632"
       y="65.636094"
       width="142.08284"
       height="176.83136"
       id="rect26915" />
    <rect
       x="55.597632"
       y="65.636094"
       width="142.08284"
       height="176.83136"
       id="rect26919" />
  </defs>
  <g
     inkscape:label="Layer 1"
     inkscape:groupmode="layer"
     id="layer1"
     style="display:inline">
    <rect
       style="fill:#00cc00;fill-opacity:1;fill-rule:evenodd;stroke-width:0.209172"
       id="rect31"
       width="150"
       height="250"
       x="25"
       y="25" />
    <text
       xml:space="preserve"
       transform="scale(0.26458333)"
       id="text2863"
       style="font-style:normal;font-weight:normal;font-size:2.66667px;line-height:1.25;font-family:sans-serif;white-space:pre;shape-inside:url(#rect2865);fill:#000000;fill-opacity:1;stroke:none"><tspan
         x="266.98242"
         y="470.02859"
         id="tspan2621">1</tspan></text>
    <g
       aria-label="0"
       id="text11671"
       style="font-size:141.111px;line-height:1.25;fill:#00000f;stroke:#ffffff;stroke-width:3"
       inkscape:transform-center-x="1.5963637"
       inkscape:transform-center-y="2.7936364">
      <path
         d="m 66.479251,160.30083 v -20.67056 q 0,-18.05228 8.95724,-28.52537 9.026143,-10.47308 24.52906,-10.47308 15.502919,0 24.529059,10.47308 9.02614,10.47309 9.02614,28.52537 v 20.67056 q 0,18.05228 -9.02614,28.59426 -9.02614,10.47309 -24.529059,10.47309 -15.502917,0 -24.52906,-10.47309 -8.95724,-10.54198 -8.95724,-28.59426 z m 26.80282,-26.18271 v 31.69485 q 0,8.61274 6.68348,8.61274 6.752379,0 6.752379,-8.61274 v -31.69485 q 0,-8.61273 -6.752379,-8.61273 -6.68348,0 -6.68348,8.61273 z"
         style="font-family:'Bauhaus 93';-inkscape-font-specification:'Bauhaus 93, '"
         id="path2347" />
    </g>
    <text
       xml:space="preserve"
       transform="scale(0.26458333)"
       id="text28725"
       style="font-style:normal;font-weight:normal;font-size:40px;line-height:1.25;font-family:sans-serif;white-space:pre;shape-inside:url(#rect28727);fill:#000000;fill-opacity:1;stroke:none" />
    <text
       xml:space="preserve"
       transform="scale(0.26458333)"
       id="text51297"
       style="font-style:normal;font-weight:normal;font-size:66.6667px;line-height:1.25;font-family:sans-serif;white-space:pre;shape-inside:url(#rect51299);fill:#000000;fill-opacity:1;stroke:none" />
    <text
       xml:space="preserve"
       transform="scale(0.26458333)"
       id="text59059"
       style="font-style:normal;font-weight:normal;font-size:40px;line-height:1.25;font-family:sans-serif;white-space:pre;shape-inside:url(#rect59061);fill:#000000;fill-opacity:1;stroke:none" />
  </g>
  <g
     inkscape:groupmode="layer"
     id="layer2"
     inkscape:label="Layer 2"
     style="display:inline">
    <rect
       style="fill:#ffffff;stroke-width:0.264583"
       id="rect97592"
       width="141.27817"
       height="18.757271"
       x="-122.1218"
       y="-36.317272" />
    <path
       id="rect97567"
       style="fill:#ffffff;stroke-width:0.999999"
       d="M 94.488281,0 0,94.488281 V 1039.3691 l 94.488281,94.4883 H 661.41797 l 94.48828,-94.4883 V 94.488281 L 661.41797,0 Z m 94.488279,94.488281 h 377.95313 l 94.48828,94.488279 v 755.90625 l -94.48828,94.48629 H 188.97656 L 94.488281,944.88281 V 188.97656 Z"
       transform="scale(0.26458333)" />
    <g
       aria-label="0"
       transform="matrix(0.26458454,0,0,0.26458333,-1.0219553,-14.17316)"
       id="text6484"
       style="font-size:146.667px;line-height:1.25;font-family:'Bauhaus 93';-inkscape-font-specification:'Bauhaus 93, ';white-space:pre;shape-inside:url(#rect6486)">
      <path
         d="m 62.401057,162.28518 v -21.48443 q 0,-18.76306 9.309918,-29.6485 9.381532,-10.88544 25.494851,-10.88544 16.113314,0 25.494854,10.88544 9.38153,10.88544 9.38153,29.6485 v 21.48443 q 0,18.76306 -9.38153,29.72012 -9.38154,10.88544 -25.494854,10.88544 -16.113319,0 -25.494851,-10.88544 -9.309918,-10.95706 -9.309918,-29.72012 z m 27.858138,-27.21361 v 32.94279 q 0,8.95184 6.946631,8.95184 7.018244,0 7.018244,-8.95184 v -32.94279 q 0,-8.95184 -7.018244,-8.95184 -6.946631,0 -6.946631,8.95184 z"
         id="path2389" />
    </g>
    <g
       aria-label="0"
       transform="matrix(0.26458333,0,0,0.26458333,149.97812,-14.17316)"
       id="text26909"
       style="font-size:146.667px;line-height:1.25;font-family:'Bauhaus 93';-inkscape-font-specification:'Bauhaus 93, ';white-space:pre;shape-inside:url(#rect26911)">
      <path
         d="m 62.401057,162.28518 v -21.48443 q 0,-18.76306 9.309918,-29.6485 9.381532,-10.88544 25.494851,-10.88544 16.113314,0 25.494854,10.88544 9.38153,10.88544 9.38153,29.6485 v 21.48443 q 0,18.76306 -9.38153,29.72012 -9.38154,10.88544 -25.494854,10.88544 -16.113319,0 -25.494851,-10.88544 -9.309918,-10.95706 -9.309918,-29.72012 z m 27.858138,-27.21361 v 32.94279 q 0,8.95184 6.946631,8.95184 7.018244,0 7.018244,-8.95184 v -32.94279 q 0,-8.95184 -7.018244,-8.95184 -6.946631,0 -6.946631,8.95184 z"
         id="path2368" />
    </g>
    <g
       aria-label="0"
       transform="matrix(0.26458333,0,0,0.26458333,-1.0218774,232.82684)"
       id="text26913"
       style="font-size:146.667px;line-height:1.25;font-family:'Bauhaus 93';-inkscape-font-specification:'Bauhaus 93, ';white-space:pre;shape-inside:url(#rect26915)">
      <path
         d="m 62.401057,162.28518 v -21.48443 q 0,-18.76306 9.309918,-29.6485 9.381532,-10.88544 25.494851,-10.88544 16.113314,0 25.494854,10.88544 9.38153,10.88544 9.38153,29.6485 v 21.48443 q 0,18.76306 -9.38153,29.72012 -9.38154,10.88544 -25.494854,10.88544 -16.113319,0 -25.494851,-10.88544 -9.309918,-10.95706 -9.309918,-29.72012 z m 27.858138,-27.21361 v 32.94279 q 0,8.95184 6.946631,8.95184 7.018244,0 7.018244,-8.95184 v -32.94279 q 0,-8.95184 -7.018244,-8.95184 -6.946631,0 -6.946631,8.95184 z"
         id="path2449" />
    </g>
    <g
       aria-label="0"
       transform="matrix(0.26458333,0,0,0.26458333,149.97812,232.82684)"
       id="text26917"
       style="font-size:146.667px;line-height:1.25;font-family:'Bauhaus 93';-inkscape-font-specification:'Bauhaus 93, ';white-space:pre;shape-inside:url(#rect26919)">
      <path
         d="m 62.401057,162.28518 v -21.48443 q 0,-18.76306 9.309918,-29.6485 9.381532,-10.88544 25.494851,-10.88544 16.113314,0 25.494854,10.88544 9.38153,10.88544 9.38153,29.6485 v 21.48443 q 0,18.76306 -9.38153,29.72012 -9.38154,10.88544 -25.494854,10.88544 -16.113319,0 -25.494851,-10.88544 -9.309918,-10.95706 -9.309918,-29.72012 z m 27.858138,-27.21361 v 32.94279 q 0,8.95184 6.946631,8.95184 7.018244,0 7.018244,-8.95184 v -32.94279 q 0,-8.95184 -7.018244,-8.95184 -6.946631,0 -6.946631,8.95184 z"
         id="path2428" />
    </g>
  </g>
</svg>
