<?xml version="1.0" encoding="UTF-8" standalone="no"?>
<!-- Created with Inkscape (http://www.inkscape.org/) -->

<svg
   width="200mm"
   height="300mm"
   viewBox="0 0 199.99999 300"
   version="1.1"
   id="svg5"
   inkscape:version="1.1.2 (b8e25be833, 2022-02-05)"
   sodipodi:docname="g3.svg"
   xmlns:inkscape="http://www.inkscape.org/namespaces/inkscape"
   xmlns:sodipodi="http://sodipodi.sourceforge.net/DTD/sodipodi-0.dtd"
   xmlns="http://www.w3.org/2000/svg"
   xmlns:svg="http://www.w3.org/2000/svg">
  <sodipodi:namedview
     id="namedview7"
     pagecolor="#5f5f5f"
     bordercolor="#666666"
     borderopacity="1.0"
     inkscape:pageshadow="2"
     inkscape:pageopacity="0"
     inkscape:pagecheckerboard="0"
     inkscape:document-units="mm"
     showgrid="false"
     width="200mm"
     units="mm"
     inkscape:zoom="0.64750959"
     inkscape:cx="331.26922"
     inkscape:cy="564.4704"
     inkscape:window-width="1920"
     inkscape:window-height="1001"
     inkscape:window-x="-9"
     inkscape:window-y="-9"
     inkscape:window-maximized="1"
     inkscape:current-layer="layer1"
     showguides="false" />
  <defs
     id="defs2">
    <rect
       x="55.597632"
       y="65.636094"
       width="142.08284"
       height="176.83136"
       id="rect6486" />
    <rect
       x="173.46312"
       y="618.43373"
       width="60.334998"
       height="340.89274"
       id="rect59061" />
    <rect
       x="134.24537"
       y="146.31237"
       width="518.88098"
       height="828.09784"
       id="rect51299" />
    <rect
       x="143.29562"
       y="217.20599"
       width="497.76373"
       height="580.72435"
       id="rect28727" />
    <rect
       x="266.98236"
       y="467.59623"
       width="196.08874"
       height="197.59712"
       id="rect2865" />
    <rect
       x="55.597632"
       y="65.636094"
       width="105.01775"
       height="138.22189"
       id="rect18968" />
    <rect
       x="55.597632"
       y="65.636094"
       width="105.01775"
       height="138.22189"
       id="rect18974" />
    <rect
       x="55.597632"
       y="65.636094"
       width="105.01775"
       height="138.22189"
       id="rect18980" />
    <rect
       x="55.597632"
       y="65.636094"
       width="142.08284"
       height="176.83136"
       id="rect26911" />
    <rect
       x="55.597632"
       y="65.636094"
       width="142.08284"
       height="176.83136"
       id="rect26915" />
    <rect
       x="55.597632"
       y="65.636094"
       width="142.08284"
       height="176.83136"
       id="rect26919" />
  </defs>
  <g
     inkscape:label="Layer 1"
     inkscape:groupmode="layer"
     id="layer1"
     style="display:inline">
    <rect
       style="fill:#00cc00;fill-opacity:1;fill-rule:evenodd;stroke-width:0.209172"
       id="rect31"
       width="150"
       height="250"
       x="25"
       y="25" />
    <text
       xml:space="preserve"
       transform="scale(0.26458333)"
       id="text2863"
       style="font-style:normal;font-weight:normal;font-size:2.66667px;line-height:1.25;font-family:sans-serif;white-space:pre;shape-inside:url(#rect2865);fill:#000000;fill-opacity:1;stroke:none"><tspan
         x="266.98242"
         y="470.02859"
         id="tspan3559">1</tspan></text>
    <g
       aria-label="3"
       id="text11671"
       style="font-size:141.111px;line-height:1.25;fill:#00000f;stroke:#ffffff;stroke-width:3"
       inkscape:transform-center-x="1.5963637"
       inkscape:transform-center-y="2.7936364">
      <path
         d="M 75.023077,102.97449 H 124.83912 L 109.474,139.14796 q 8.26823,5.58105 11.98893,12.26453 3.7896,6.61457 3.7896,15.70962 0,13.57366 -9.99077,22.94432 -9.99077,9.30175 -24.597962,9.30175 -8.061517,0 -15.98523,-3.03169 v -26.59611 q 5.994461,3.7207 10.40418,3.7207 4.823129,0 8.061516,-3.44509 3.307289,-3.4451 3.307289,-8.54383 0,-5.85666 -4.892031,-9.30175 -4.892032,-3.514 -13.091352,-3.514 l 6.959087,-18.5346 h -10.40418 z"
         style="font-family:'Bauhaus 93';-inkscape-font-specification:'Bauhaus 93, '"
         id="path3384" />
    </g>
    <text
       xml:space="preserve"
       transform="scale(0.26458333)"
       id="text28725"
       style="font-style:normal;font-weight:normal;font-size:40px;line-height:1.25;font-family:sans-serif;white-space:pre;shape-inside:url(#rect28727);fill:#000000;fill-opacity:1;stroke:none" />
    <text
       xml:space="preserve"
       transform="scale(0.26458333)"
       id="text51297"
       style="font-style:normal;font-weight:normal;font-size:66.6667px;line-height:1.25;font-family:sans-serif;white-space:pre;shape-inside:url(#rect51299);fill:#000000;fill-opacity:1;stroke:none" />
    <text
       xml:space="preserve"
       transform="scale(0.26458333)"
       id="text59059"
       style="font-style:normal;font-weight:normal;font-size:40px;line-height:1.25;font-family:sans-serif;white-space:pre;shape-inside:url(#rect59061);fill:#000000;fill-opacity:1;stroke:none" />
  </g>
  <g
     inkscape:groupmode="layer"
     id="layer2"
     inkscape:label="Layer 2"
     style="display:inline">
    <rect
       style="fill:#ffffff;stroke-width:0.264583"
       id="rect97592"
       width="141.27817"
       height="18.757271"
       x="-122.1218"
       y="-36.317272" />
    <path
       id="rect97567"
       style="fill:#ffffff;stroke-width:0.999999"
       d="M 94.488281,0 0,94.488281 V 1039.3691 l 94.488281,94.4883 H 661.41797 l 94.48828,-94.4883 V 94.488281 L 661.41797,0 Z m 94.488279,94.488281 h 377.95313 l 94.48828,94.488279 v 755.90625 l -94.48828,94.48629 H 188.97656 L 94.488281,944.88281 V 188.97656 Z"
       transform="scale(0.26458333)" />
    <g
       aria-label="3"
       transform="matrix(0.26458333,0,0,0.26458333,-1.2840479,-12.17316)"
       id="text6484"
       style="font-size:146.667px;line-height:1.25;font-family:'Bauhaus 93';-inkscape-font-specification:'Bauhaus 93, ';white-space:pre;shape-inside:url(#rect6486)">
      <path
         d="m 71.352901,102.70171 h 51.777469 l -15.97009,37.59774 q 8.59377,5.8008 12.46096,12.74743 3.93881,6.87501 3.93881,16.32816 0,14.10811 -10.38413,23.84771 -10.38414,9.66799 -25.566471,9.66799 -8.378925,0 -16.614622,-3.15105 V 172.0964 q 6.230484,3.8672 10.813828,3.8672 5.013032,0 8.378925,-3.58074 3.437508,-3.58074 3.437508,-8.88023 0,-6.08725 -5.084647,-9.66799 -5.084647,-3.65235 -13.606802,-3.65235 l 7.233089,-19.26437 H 71.352901 Z"
         id="path3405" />
    </g>
    <g
       aria-label="3"
       transform="matrix(0.26458333,0,0,0.26458333,151.21595,-12.17316)"
       id="text26909"
       style="font-size:146.667px;line-height:1.25;font-family:'Bauhaus 93';-inkscape-font-specification:'Bauhaus 93, ';white-space:pre;shape-inside:url(#rect26911)">
      <path
         d="m 71.352901,102.70171 h 51.777469 l -15.97009,37.59774 q 8.59377,5.8008 12.46096,12.74743 3.93881,6.87501 3.93881,16.32816 0,14.10811 -10.38413,23.84771 -10.38414,9.66799 -25.566471,9.66799 -8.378925,0 -16.614622,-3.15105 V 172.0964 q 6.230484,3.8672 10.813828,3.8672 5.013032,0 8.378925,-3.58074 3.437508,-3.58074 3.437508,-8.88023 0,-6.08725 -5.084647,-9.66799 -5.084647,-3.65235 -13.606802,-3.65235 l 7.233089,-19.26437 H 71.352901 Z"
         id="path3444" />
    </g>
    <g
       aria-label="3"
       transform="matrix(0.26458333,0,0,0.26458333,-1.2840479,232.82684)"
       id="text26913"
       style="font-size:146.667px;line-height:1.25;font-family:'Bauhaus 93';-inkscape-font-specification:'Bauhaus 93, ';white-space:pre;shape-inside:url(#rect26915)">
      <path
         d="m 71.352901,102.70171 h 51.777469 l -15.97009,37.59774 q 8.59377,5.8008 12.46096,12.74743 3.93881,6.87501 3.93881,16.32816 0,14.10811 -10.38413,23.84771 -10.38414,9.66799 -25.566471,9.66799 -8.378925,0 -16.614622,-3.15105 V 172.0964 q 6.230484,3.8672 10.813828,3.8672 5.013032,0 8.378925,-3.58074 3.437508,-3.58074 3.437508,-8.88023 0,-6.08725 -5.084647,-9.66799 -5.084647,-3.65235 -13.606802,-3.65235 l 7.233089,-19.26437 H 71.352901 Z"
         id="path3486" />
    </g>
    <g
       aria-label="3"
       transform="matrix(0.26458333,0,0,0.26458333,151.21595,232.82684)"
       id="text26917"
       style="font-size:146.667px;line-height:1.25;font-family:'Bauhaus 93';-inkscape-font-specification:'Bauhaus 93, ';white-space:pre;shape-inside:url(#rect26919)">
      <path
         d="m 71.352901,102.70171 h 51.777469 l -15.97009,37.59774 q 8.59377,5.8008 12.46096,12.74743 3.93881,6.87501 3.93881,16.32816 0,14.10811 -10.38413,23.84771 -10.38414,9.66799 -25.566471,9.66799 -8.378925,0 -16.614622,-3.15105 V 172.0964 q 6.230484,3.8672 10.813828,3.8672 5.013032,0 8.378925,-3.58074 3.437508,-3.58074 3.437508,-8.88023 0,-6.08725 -5.084647,-9.66799 -5.084647,-3.65235 -13.606802,-3.65235 l 7.233089,-19.26437 H 71.352901 Z"
         id="path3465" />
    </g>
  </g>
</svg>
