<?xml version="1.0" encoding="UTF-8" standalone="no"?>
<!-- Created with Inkscape (http://www.inkscape.org/) -->

<svg
   width="200mm"
   height="300mm"
   viewBox="0 0 199.99999 300"
   version="1.1"
   id="svg5"
   inkscape:version="1.1.2 (b8e25be833, 2022-02-05)"
   sodipodi:docname="r11.svg"
   xmlns:inkscape="http://www.inkscape.org/namespaces/inkscape"
   xmlns:sodipodi="http://sodipodi.sourceforge.net/DTD/sodipodi-0.dtd"
   xmlns="http://www.w3.org/2000/svg"
   xmlns:svg="http://www.w3.org/2000/svg">
  <sodipodi:namedview
     id="namedview7"
     pagecolor="#5f5f5f"
     bordercolor="#666666"
     borderopacity="1.0"
     inkscape:pageshadow="2"
     inkscape:pageopacity="0"
     inkscape:pagecheckerboard="0"
     inkscape:document-units="mm"
     showgrid="false"
     width="200mm"
     units="mm"
     inkscape:zoom="0.43334728"
     inkscape:cx="-17.307135"
     inkscape:cy="626.5183"
     inkscape:window-width="1920"
     inkscape:window-height="1001"
     inkscape:window-x="-9"
     inkscape:window-y="-9"
     inkscape:window-maximized="1"
     inkscape:current-layer="layer1"
     showguides="false" />
  <defs
     id="defs2">
    <rect
       x="55.597632"
       y="65.636094"
       width="142.08284"
       height="176.83136"
       id="rect6486" />
    <rect
       x="173.46312"
       y="618.43373"
       width="60.334998"
       height="340.89274"
       id="rect59061" />
    <rect
       x="134.24537"
       y="146.31237"
       width="518.88098"
       height="828.09784"
       id="rect51299" />
    <rect
       x="143.29562"
       y="217.20599"
       width="497.76373"
       height="580.72435"
       id="rect28727" />
    <rect
       x="266.98236"
       y="467.59623"
       width="196.08874"
       height="197.59712"
       id="rect2865" />
    <rect
       x="55.597632"
       y="65.636094"
       width="105.01775"
       height="138.22189"
       id="rect18968" />
    <rect
       x="55.597632"
       y="65.636094"
       width="105.01775"
       height="138.22189"
       id="rect18974" />
    <rect
       x="55.597632"
       y="65.636094"
       width="105.01775"
       height="138.22189"
       id="rect18980" />
    <rect
       x="55.597632"
       y="65.636094"
       width="142.08284"
       height="176.83136"
       id="rect26911" />
    <rect
       x="55.597632"
       y="65.636094"
       width="142.08284"
       height="176.83136"
       id="rect26915" />
    <rect
       x="55.597632"
       y="65.636094"
       width="142.08284"
       height="176.83136"
       id="rect26919" />
  </defs>
  <g
     inkscape:label="Layer 1"
     inkscape:groupmode="layer"
     id="layer1"
     style="display:inline">
    <rect
       style="fill:#ff0000;fill-opacity:1;fill-rule:evenodd;stroke-width:0.209172"
       id="rect31"
       width="150"
       height="250"
       x="25"
       y="25" />
    <text
       xml:space="preserve"
       transform="scale(0.26458333)"
       id="text28725"
       style="font-style:normal;font-weight:normal;font-size:40px;line-height:1.25;font-family:sans-serif;white-space:pre;shape-inside:url(#rect28727);fill:#000000;fill-opacity:1;stroke:none" />
    <text
       xml:space="preserve"
       transform="scale(0.26458333)"
       id="text51297"
       style="font-style:normal;font-weight:normal;font-size:66.6667px;line-height:1.25;font-family:sans-serif;white-space:pre;shape-inside:url(#rect51299);fill:#000000;fill-opacity:1;stroke:none" />
    <text
       xml:space="preserve"
       transform="scale(0.26458333)"
       id="text59059"
       style="font-style:normal;font-weight:normal;font-size:40px;line-height:1.25;font-family:sans-serif;white-space:pre;shape-inside:url(#rect59061);fill:#000000;fill-opacity:1;stroke:none" />
  </g>
  <g
     inkscape:groupmode="layer"
     id="layer2"
     inkscape:label="Layer 2"
     style="display:inline">
    <path
       id="rect97567"
       style="fill:#ffffff;stroke-width:0.999999"
       d="M 94.488281,0 0,94.488281 V 1039.3691 l 94.488281,94.4883 H 661.41797 l 94.48828,-94.4883 V 94.488281 L 661.41797,0 Z m 94.488279,94.488281 h 377.95313 l 94.48828,94.488279 v 755.90625 l -94.48828,94.48629 H 188.97656 L 94.488281,944.88281 V 188.97656 Z"
       transform="scale(0.26458333)" />
  </g>
  <g
     inkscape:groupmode="layer"
     id="layer3"
     inkscape:label="Layer 3">
    <path
       d="M 72.769246,176.87837 C 57.844983,164.1199 53.668733,150.07779 73.023638,133.12809 l 3.455476,-3.03404 v 0 l 0.402785,-0.35007 c 2.310717,-2.04214 4.536643,-4.23014 6.868561,-6.40842 0.222581,-0.21393 0.317978,-0.46676 0.275584,-0.74877 -0.04246,-0.28202 -0.20139,-0.50568 -0.487583,-0.65154 l -8.543293,-4.74554 c -0.370989,-0.20421 -0.56178,-0.56401 -0.476984,-0.94326 0.0848,-0.37926 0.413386,-0.65154 0.83737,-0.71961 12.115364,-1.8282 24.209538,-3.63695 36.314296,-5.51376 0.34978,-0.0486 0.65716,0.0388 0.91156,0.25283 0.2438,0.2042 0.33919,0.49595 0.27558,0.78769 l -6.30676,31.83784 c -0.0741,0.38896 -0.39218,0.67098 -0.81618,0.73905 -0.42398,0.068 -0.82677,-0.0972 -1.07055,-0.41814 l -5.405808,-7.49757 c -0.18018,-0.24311 -0.42398,-0.39869 -0.75257,-0.43759 -0.32859,-0.0292 -0.61478,0.0584 -0.84797,0.25283 -2.44852,2.07131 -4.95003,3.9384 -7.334934,5.98054 l -0.392185,0.35979 c -19.27011,16.89138 -17.022991,19.25441 -17.160787,35.00802 z m 54.206444,-10.01618 -3.45546,3.04376 v 0 l -0.41339,0.35008 c -2.30013,2.06158 -4.53663,4.23013 -6.85795,6.40842 -0.22259,0.2042 -0.3286,0.45703 -0.28621,0.74877 0.0423,0.27229 0.212,0.50568 0.49819,0.65153 l 8.5433,4.74554 c 0.38159,0.20422 0.56177,0.56403 0.477,0.94327 -0.0848,0.37927 -0.41339,0.65154 -0.8374,0.71962 -12.10476,1.82819 -24.20952,3.63694 -36.314288,5.51374 -0.349778,0.0486 -0.657174,-0.0388 -0.911566,-0.25283 -0.243785,-0.21394 -0.349778,-0.49593 -0.275584,-0.7974 l 6.30677,-31.84757 c 0.0741,-0.37924 0.39218,-0.65154 0.81617,-0.7196 0.42398,-0.0778 0.83737,0.0874 1.07056,0.40842 l 5.416418,7.49756 c 0.16953,0.23336 0.42398,0.38898 0.74196,0.41814 0.31799,0.0486 0.61477,-0.0388 0.84797,-0.24311 2.43791,-2.0713 4.95002,-3.93841 7.32434,-5.99025 l 0.40278,-0.35009 h 0.0212 c 19.27011,-16.89135 17.02298,-19.2544 17.15018,-35.008 14.92427,12.76818 19.07932,26.81029 -0.26499,43.76 z"
       id="path9445"
       style="stroke-width:3;stroke-miterlimit:4;stroke-dasharray:none;stroke:#ffffff;stroke-opacity:1"
       sodipodi:nodetypes="cccccccccscccccccccccccccccccccsccccccccccccccsc" />
    <path
       d="m 18.249019,31.101431 c -3.797336,-3.071692 -4.859941,-6.452427 0.06471,-10.533186 l 0.879214,-0.730466 v 0 l 0.102462,-0.08426 c 0.58794,-0.49166 1.154306,-1.018436 1.747643,-1.542873 0.0566,-0.05154 0.0809,-0.112376 0.07013,-0.180271 -0.01074,-0.06786 -0.05127,-0.121745 -0.124063,-0.156864 L 18.815366,16.73098 c -0.09445,-0.0492 -0.142938,-0.13579 -0.121364,-0.227095 0.02153,-0.09129 0.105172,-0.156864 0.21306,-0.173251 3.082638,-0.440152 6.159886,-0.875622 9.239827,-1.327478 0.089,-0.01171 0.167206,0.0093 0.231938,0.06083 0.06204,0.0492 0.08635,0.119403 0.07013,0.189643 l -1.604694,7.665183 c -0.01885,0.09363 -0.09977,0.161543 -0.207668,0.177933 -0.10788,0.01639 -0.210363,-0.02343 -0.272392,-0.100672 l -1.375454,-1.805091 c -0.04583,-0.0585 -0.10788,-0.09598 -0.191484,-0.105353 -0.08357,-0.007 -0.156425,0.01407 -0.215757,0.06082 -0.623004,0.498682 -1.259488,0.948196 -1.866305,1.439855 l -0.09977,0.0866 c -4.903091,4.066719 -4.331332,4.635634 -4.366395,8.428425 z m 13.792313,-2.411465 -0.879208,0.732808 v 0 l -0.105175,0.08426 c -0.585247,0.496339 -1.154303,1.018436 -1.744938,1.542873 -0.0566,0.04921 -0.08357,0.110035 -0.07281,0.180271 0.01074,0.06551 0.05394,0.121747 0.126762,0.156858 l 2.173759,1.142527 c 0.0971,0.04921 0.142939,0.135794 0.121371,0.227095 -0.02157,0.0913 -0.105188,0.156865 -0.21307,0.173255 -3.07994,0.440149 -6.159882,0.875618 -9.239824,1.327472 -0.089,0.0117 -0.167211,-0.0094 -0.23194,-0.06084 -0.06203,-0.05154 -0.089,-0.1194 -0.07013,-0.191979 l 1.60469,-7.667532 c 0.01884,-0.09129 0.09977,-0.156861 0.207668,-0.173247 0.107877,-0.01875 0.213059,0.02106 0.272393,0.09832 l 1.378152,1.805092 c 0.04315,0.05617 0.107882,0.09363 0.188784,0.100666 0.0809,0.0117 0.156424,-0.0093 0.215761,-0.05849 0.620303,-0.498678 1.259486,-0.948199 1.863608,-1.442194 l 0.102477,-0.08426 h 0.0051 c 4.903094,-4.06671 4.331333,-4.635632 4.363697,-8.428422 3.797341,3.074028 4.854554,6.454765 -0.06743,10.535527 z"
       id="path9445-5"
       style="stroke:#ffffff;stroke-width:0;stroke-miterlimit:4;stroke-dasharray:none;stroke-opacity:1"
       sodipodi:nodetypes="cccccccccscccccccccccccccccccccsccccccccccccccsc" />
    <path
       d="m 18.249019,281.10143 c -3.797336,-3.07169 -4.859941,-6.45243 0.06471,-10.53318 l 0.879214,-0.73047 v 0 l 0.102462,-0.0843 c 0.58794,-0.49166 1.154306,-1.01844 1.747643,-1.54287 0.0566,-0.0515 0.0809,-0.11238 0.07013,-0.18027 -0.01074,-0.0679 -0.05127,-0.12175 -0.124063,-0.15687 l -2.173749,-1.14253 c -0.09445,-0.0492 -0.142938,-0.13579 -0.121364,-0.22709 0.02153,-0.0913 0.105172,-0.15687 0.21306,-0.17326 3.082638,-0.44015 6.159886,-0.87562 9.239827,-1.32747 0.089,-0.0117 0.167206,0.009 0.231938,0.0608 0.06204,0.0492 0.08635,0.1194 0.07013,0.18964 l -1.604694,7.66518 c -0.01885,0.0936 -0.09977,0.16155 -0.207668,0.17794 -0.10788,0.0164 -0.210363,-0.0234 -0.272392,-0.10068 l -1.375454,-1.80509 c -0.04583,-0.0585 -0.10788,-0.096 -0.191484,-0.10535 -0.08357,-0.007 -0.156425,0.0141 -0.215757,0.0608 -0.623004,0.49868 -1.259488,0.9482 -1.866305,1.43985 l -0.09977,0.0866 c -4.903091,4.06672 -4.331332,4.63564 -4.366395,8.42843 z m 13.792313,-2.41146 -0.879208,0.7328 v 0 l -0.105175,0.0843 c -0.585247,0.49634 -1.154303,1.01844 -1.744938,1.54288 -0.0566,0.0492 -0.08357,0.11003 -0.07281,0.18027 0.01074,0.0655 0.05394,0.12175 0.126762,0.15686 l 2.173759,1.14252 c 0.0971,0.0492 0.142939,0.1358 0.121371,0.2271 -0.02157,0.0913 -0.105188,0.15686 -0.21307,0.17325 -3.07994,0.44015 -6.159882,0.87562 -9.239824,1.32748 -0.089,0.0117 -0.167211,-0.009 -0.23194,-0.0608 -0.06203,-0.0515 -0.089,-0.1194 -0.07013,-0.19198 l 1.60469,-7.66754 c 0.01884,-0.0913 0.09977,-0.15686 0.207668,-0.17324 0.107877,-0.0188 0.213059,0.0211 0.272393,0.0983 l 1.378152,1.80509 c 0.04315,0.0562 0.107882,0.0936 0.188784,0.10067 0.0809,0.0117 0.156424,-0.009 0.215761,-0.0585 0.620303,-0.49868 1.259486,-0.9482 1.863608,-1.4422 l 0.102477,-0.0843 h 0.0051 c 4.903094,-4.06671 4.331333,-4.63563 4.363697,-8.42842 3.797341,3.07403 4.854554,6.45476 -0.06743,10.53553 z"
       id="path9445-5-5"
       style="stroke:#ffffff;stroke-width:0;stroke-miterlimit:4;stroke-dasharray:none;stroke-opacity:1"
       sodipodi:nodetypes="cccccccccscccccccccccccccccccccsccccccccccccccsc" />
    <path
       d="m 168.24902,31.101487 c -3.79734,-3.07169 -4.85994,-6.45243 0.0647,-10.53318 l 0.87921,-0.73047 v 0 l 0.10247,-0.0843 c 0.58794,-0.49166 1.1543,-1.01844 1.74764,-1.54287 0.0566,-0.0515 0.0809,-0.11238 0.0701,-0.18027 -0.0107,-0.0679 -0.0513,-0.12175 -0.12406,-0.15687 l -2.17375,-1.14253 c -0.0944,-0.0492 -0.14294,-0.13579 -0.12137,-0.22709 0.0215,-0.0913 0.10517,-0.15687 0.21306,-0.17326 3.08264,-0.44015 6.15989,-0.87562 9.23983,-1.32747 0.089,-0.0117 0.16721,0.009 0.23194,0.0608 0.062,0.0492 0.0864,0.1194 0.0701,0.18964 l -1.6047,7.66518 c -0.0188,0.0936 -0.0998,0.16155 -0.20766,0.17794 -0.10788,0.0164 -0.21037,-0.0234 -0.2724,-0.10068 l -1.37545,-1.80509 c -0.0458,-0.0585 -0.10788,-0.096 -0.19148,-0.10535 -0.0836,-0.007 -0.15643,0.0141 -0.21576,0.0608 -0.62301,0.49868 -1.25949,0.9482 -1.86631,1.43985 l -0.0998,0.0866 c -4.90309,4.06672 -4.33133,4.63564 -4.36639,8.42843 z m 13.79231,-2.41146 -0.87921,0.7328 v 0 l -0.10517,0.0843 c -0.58525,0.49634 -1.1543,1.01844 -1.74494,1.54288 -0.0566,0.0492 -0.0836,0.11003 -0.0728,0.18027 0.0107,0.0655 0.0539,0.12175 0.12676,0.15686 l 2.17376,1.14252 c 0.0971,0.0492 0.14294,0.1358 0.12137,0.2271 -0.0216,0.0913 -0.10518,0.15686 -0.21307,0.17325 -3.07994,0.44015 -6.15988,0.87562 -9.23982,1.32748 -0.089,0.0117 -0.16721,-0.009 -0.23194,-0.0608 -0.062,-0.0515 -0.089,-0.1194 -0.0701,-0.19198 l 1.60469,-7.66754 c 0.0188,-0.0913 0.0998,-0.15686 0.20767,-0.17324 0.10787,-0.0188 0.21306,0.0211 0.27239,0.0983 l 1.37815,1.80509 c 0.0431,0.0562 0.10788,0.0936 0.18879,0.10067 0.0809,0.0117 0.15642,-0.009 0.21576,-0.0585 0.6203,-0.49868 1.25948,-0.9482 1.86361,-1.4422 l 0.10247,-0.0843 h 0.005 c 4.9031,-4.06671 4.33134,-4.63563 4.3637,-8.42842 3.79734,3.07403 4.85455,6.45476 -0.0674,10.53553 z"
       id="path9445-5-1"
       style="stroke:#ffffff;stroke-width:0;stroke-miterlimit:4;stroke-dasharray:none;stroke-opacity:1"
       sodipodi:nodetypes="cccccccccscccccccccccccccccccccsccccccccccccccsc" />
    <path
       d="m 168.24902,281.10149 c -3.79734,-3.07169 -4.85994,-6.45243 0.0647,-10.53318 l 0.87921,-0.73047 v 0 l 0.10247,-0.0843 c 0.58794,-0.49166 1.1543,-1.01844 1.74764,-1.54287 0.0566,-0.0515 0.0809,-0.11238 0.0701,-0.18027 -0.0107,-0.0679 -0.0513,-0.12175 -0.12406,-0.15687 l -2.17375,-1.14253 c -0.0944,-0.0492 -0.14294,-0.13579 -0.12137,-0.22709 0.0215,-0.0913 0.10517,-0.15687 0.21306,-0.17326 3.08264,-0.44015 6.15989,-0.87562 9.23983,-1.32747 0.089,-0.0117 0.16721,0.009 0.23194,0.0608 0.062,0.0492 0.0864,0.1194 0.0701,0.18964 l -1.6047,7.66518 c -0.0188,0.0936 -0.0998,0.16155 -0.20766,0.17794 -0.10788,0.0164 -0.21037,-0.0234 -0.2724,-0.10068 l -1.37545,-1.80509 c -0.0458,-0.0585 -0.10788,-0.096 -0.19148,-0.10535 -0.0836,-0.007 -0.15643,0.0141 -0.21576,0.0608 -0.62301,0.49868 -1.25949,0.9482 -1.86631,1.43985 l -0.0998,0.0866 c -4.90309,4.06672 -4.33133,4.63564 -4.36639,8.42843 z m 13.79231,-2.41146 -0.87921,0.7328 v 0 l -0.10517,0.0843 c -0.58525,0.49634 -1.1543,1.01844 -1.74494,1.54288 -0.0566,0.0492 -0.0836,0.11003 -0.0728,0.18027 0.0107,0.0655 0.0539,0.12175 0.12676,0.15686 l 2.17376,1.14252 c 0.0971,0.0492 0.14294,0.1358 0.12137,0.2271 -0.0216,0.0913 -0.10518,0.15686 -0.21307,0.17325 -3.07994,0.44015 -6.15988,0.87562 -9.23982,1.32748 -0.089,0.0117 -0.16721,-0.009 -0.23194,-0.0608 -0.062,-0.0515 -0.089,-0.1194 -0.0701,-0.19198 l 1.60469,-7.66754 c 0.0188,-0.0913 0.0998,-0.15686 0.20767,-0.17324 0.10787,-0.0188 0.21306,0.0211 0.27239,0.0983 l 1.37815,1.80509 c 0.0431,0.0562 0.10788,0.0936 0.18879,0.10067 0.0809,0.0117 0.15642,-0.009 0.21576,-0.0585 0.6203,-0.49868 1.25948,-0.9482 1.86361,-1.4422 l 0.10247,-0.0843 h 0.005 c 4.9031,-4.06671 4.33134,-4.63563 4.3637,-8.42842 3.79734,3.07403 4.85455,6.45476 -0.0674,10.53553 z"
       id="path9445-5-1-8"
       style="stroke:#ffffff;stroke-width:0;stroke-miterlimit:4;stroke-dasharray:none;stroke-opacity:1"
       sodipodi:nodetypes="cccccccccscccccccccccccccccccccsccccccccccccccsc" />
  </g>
</svg>
