<?xml version="1.0" encoding="UTF-8" standalone="no"?>
<!-- Created with Inkscape (http://www.inkscape.org/) -->

<svg
   width="200mm"
   height="300mm"
   viewBox="0 0 199.99999 300"
   version="1.1"
   id="svg5"
   inkscape:version="1.1.2 (b8e25be833, 2022-02-05)"
   sodipodi:docname="r8.svg"
   xmlns:inkscape="http://www.inkscape.org/namespaces/inkscape"
   xmlns:sodipodi="http://sodipodi.sourceforge.net/DTD/sodipodi-0.dtd"
   xmlns="http://www.w3.org/2000/svg"
   xmlns:svg="http://www.w3.org/2000/svg">
  <sodipodi:namedview
     id="namedview7"
     pagecolor="#5f5f5f"
     bordercolor="#666666"
     borderopacity="1.0"
     inkscape:pageshadow="2"
     inkscape:pageopacity="0"
     inkscape:pagecheckerboard="0"
     inkscape:document-units="mm"
     showgrid="false"
     width="200mm"
     units="mm"
     inkscape:zoom="0.64750959"
     inkscape:cx="331.26922"
     inkscape:cy="561.38165"
     inkscape:window-width="1920"
     inkscape:window-height="1001"
     inkscape:window-x="-9"
     inkscape:window-y="-9"
     inkscape:window-maximized="1"
     inkscape:current-layer="layer2"
     showguides="false" />
  <defs
     id="defs2">
    <rect
       x="55.597632"
       y="65.636094"
       width="142.08284"
       height="176.83136"
       id="rect6486" />
    <rect
       x="173.46312"
       y="618.43373"
       width="60.334998"
       height="340.89274"
       id="rect59061" />
    <rect
       x="134.24537"
       y="146.31237"
       width="518.88098"
       height="828.09784"
       id="rect51299" />
    <rect
       x="143.29562"
       y="217.20599"
       width="497.76373"
       height="580.72435"
       id="rect28727" />
    <rect
       x="266.98236"
       y="467.59623"
       width="196.08874"
       height="197.59712"
       id="rect2865" />
    <rect
       x="55.597632"
       y="65.636094"
       width="105.01775"
       height="138.22189"
       id="rect18968" />
    <rect
       x="55.597632"
       y="65.636094"
       width="105.01775"
       height="138.22189"
       id="rect18974" />
    <rect
       x="55.597632"
       y="65.636094"
       width="105.01775"
       height="138.22189"
       id="rect18980" />
    <rect
       x="55.597632"
       y="65.636094"
       width="142.08284"
       height="176.83136"
       id="rect26911" />
    <rect
       x="55.597632"
       y="65.636094"
       width="142.08284"
       height="176.83136"
       id="rect26915" />
    <rect
       x="55.597632"
       y="65.636094"
       width="142.08284"
       height="176.83136"
       id="rect26919" />
  </defs>
  <g
     inkscape:label="Layer 1"
     inkscape:groupmode="layer"
     id="layer1"
     style="display:inline">
    <rect
       style="fill:#ff0000;fill-opacity:1;fill-rule:evenodd;stroke-width:0.209172"
       id="rect31"
       width="150"
       height="250"
       x="25"
       y="25" />
    <text
       xml:space="preserve"
       transform="scale(0.26458333)"
       id="text2863"
       style="font-style:normal;font-weight:normal;font-size:2.66667px;line-height:1.25;font-family:sans-serif;white-space:pre;shape-inside:url(#rect2865);fill:#000000;fill-opacity:1;stroke:none"><tspan
         x="266.98242"
         y="470.02859"
         id="tspan3225">1</tspan></text>
    <g
       aria-label="8"
       id="text11671"
       style="font-size:141.111px;line-height:1.25;fill:#00000f;stroke:#ffffff;stroke-width:3"
       inkscape:transform-center-x="1.5963637"
       inkscape:transform-center-y="2.7936364">
      <path
         d="m 123.11657,143.07536 q 5.85666,6.06337 8.06152,11.1621 2.20486,5.09874 2.20486,12.40234 0,13.98707 -9.57736,23.35772 -9.50845,9.37066 -23.77114,9.37066 -14.331583,0 -23.90894,-9.37066 -9.508456,-9.37065 -9.508456,-23.35772 0,-7.09689 2.273761,-12.40234 2.342663,-5.30544 7.992615,-11.1621 -5.098737,-6.75238 -5.098737,-15.0206 0,-11.92002 7.923713,-19.63703 7.923713,-7.78591 20.188243,-7.78591 12.402331,0 20.326041,7.71701 7.99262,7.71701 7.99262,19.77483 0,8.13042 -5.09874,14.9517 z m -23.426627,-22.2553 q -3.100583,0 -5.374344,2.27377 -2.20486,2.27376 -2.20486,5.30544 0,3.51399 2.20486,5.78775 2.204859,2.27376 5.649952,2.27376 3.100579,0 5.305439,-2.34266 2.27376,-2.34266 2.27376,-5.51215 0,-3.30729 -2.27376,-5.51214 -2.27376,-2.27377 -5.581047,-2.27377 z m 0.206706,35.07105 q -4.685326,0 -8.061517,3.30729 -3.307289,3.23838 -3.307289,7.85481 0,5.02983 3.238387,8.40602 3.238387,3.30729 8.130419,3.30729 4.892031,0 8.130421,-3.30729 3.23838,-3.37619 3.23838,-8.40602 0,-4.54753 -3.37619,-7.85481 -3.37619,-3.30729 -7.992611,-3.30729 z"
         style="font-family:'Bauhaus 93';-inkscape-font-specification:'Bauhaus 93, '"
         id="path3128" />
    </g>
    <text
       xml:space="preserve"
       transform="scale(0.26458333)"
       id="text28725"
       style="font-style:normal;font-weight:normal;font-size:40px;line-height:1.25;font-family:sans-serif;white-space:pre;shape-inside:url(#rect28727);fill:#000000;fill-opacity:1;stroke:none" />
    <text
       xml:space="preserve"
       transform="scale(0.26458333)"
       id="text51297"
       style="font-style:normal;font-weight:normal;font-size:66.6667px;line-height:1.25;font-family:sans-serif;white-space:pre;shape-inside:url(#rect51299);fill:#000000;fill-opacity:1;stroke:none" />
    <text
       xml:space="preserve"
       transform="scale(0.26458333)"
       id="text59059"
       style="font-style:normal;font-weight:normal;font-size:40px;line-height:1.25;font-family:sans-serif;white-space:pre;shape-inside:url(#rect59061);fill:#000000;fill-opacity:1;stroke:none" />
  </g>
  <g
     inkscape:groupmode="layer"
     id="layer2"
     inkscape:label="Layer 2"
     style="display:inline">
    <rect
       style="fill:#ffffff;stroke-width:0.264583"
       id="rect97592"
       width="141.27817"
       height="18.757271"
       x="-122.1218"
       y="-36.317272" />
    <path
       id="rect97567"
       style="fill:#ffffff;stroke-width:0.999999"
       d="M 94.488281,0 0,94.488281 V 1039.3691 l 94.488281,94.4883 H 661.41797 l 94.48828,-94.4883 V 94.488281 L 661.41797,0 Z m 94.488279,94.488281 h 377.95313 l 94.48828,94.488279 v 755.90625 l -94.48828,94.48629 H 188.97656 L 94.488281,944.88281 V 188.97656 Z"
       transform="scale(0.26458333)" />
    <g
       aria-label="8"
       transform="matrix(0.26458454,0,0,0.26458333,-1.0219553,-14.17316)"
       id="text6484"
       style="font-size:146.667px;line-height:1.25;font-family:'Bauhaus 93';-inkscape-font-specification:'Bauhaus 93, ';white-space:pre;shape-inside:url(#rect6486)">
      <path
         d="m 121.26838,144.38149 q 6.08726,6.3021 8.37893,11.60159 2.29167,5.29949 2.29167,12.89066 0,14.53779 -9.95445,24.2774 -9.88284,9.7396 -24.707089,9.7396 -14.895868,0 -24.850319,-9.7396 -9.882835,-9.73961 -9.882835,-24.2774 0,-7.37632 2.363287,-12.89066 2.434901,-5.51433 8.307311,-11.60159 -5.299492,-7.01824 -5.299492,-15.61201 0,-12.38935 8.235696,-20.41021 8.235697,-8.09246 20.983122,-8.09246 12.890659,0 21.126349,8.02085 8.30731,8.02085 8.30731,20.55343 0,8.45054 -5.29949,15.5404 z M 96.919367,121.24993 q -3.222664,0 -5.585951,2.36328 -2.291672,2.36329 -2.291672,5.51434 0,3.65235 2.291672,6.01564 2.291672,2.36329 5.87241,2.36329 3.222664,0 5.514334,-2.43491 2.36329,-2.4349 2.36329,-5.72918 0,-3.4375 -2.36329,-5.72918 -2.36329,-2.36328 -5.800793,-2.36328 z m 0.214844,36.45191 q -4.869803,0 -8.378926,3.4375 -3.437508,3.3659 -3.437508,8.16409 0,5.22787 3.365894,8.73699 3.365893,3.43751 8.45054,3.43751 5.084649,0 8.450539,-3.43751 3.36589,-3.50912 3.36589,-8.73699 0,-4.72658 -3.50912,-8.16409 -3.50912,-3.4375 -8.307309,-3.4375 z"
         id="path3086" />
    </g>
    <g
       aria-label="8"
       transform="matrix(0.26458333,0,0,0.26458333,149.97812,-14.17316)"
       id="text26909"
       style="font-size:146.667px;line-height:1.25;font-family:'Bauhaus 93';-inkscape-font-specification:'Bauhaus 93, ';white-space:pre;shape-inside:url(#rect26911)">
      <path
         d="m 121.26838,144.38149 q 6.08726,6.3021 8.37893,11.60159 2.29167,5.29949 2.29167,12.89066 0,14.53779 -9.95445,24.2774 -9.88284,9.7396 -24.707089,9.7396 -14.895868,0 -24.850319,-9.7396 -9.882835,-9.73961 -9.882835,-24.2774 0,-7.37632 2.363287,-12.89066 2.434901,-5.51433 8.307311,-11.60159 -5.299492,-7.01824 -5.299492,-15.61201 0,-12.38935 8.235696,-20.41021 8.235697,-8.09246 20.983122,-8.09246 12.890659,0 21.126349,8.02085 8.30731,8.02085 8.30731,20.55343 0,8.45054 -5.29949,15.5404 z M 96.919367,121.24993 q -3.222664,0 -5.585951,2.36328 -2.291672,2.36329 -2.291672,5.51434 0,3.65235 2.291672,6.01564 2.291672,2.36329 5.87241,2.36329 3.222664,0 5.514334,-2.43491 2.36329,-2.4349 2.36329,-5.72918 0,-3.4375 -2.36329,-5.72918 -2.36329,-2.36328 -5.800793,-2.36328 z m 0.214844,36.45191 q -4.869803,0 -8.378926,3.4375 -3.437508,3.3659 -3.437508,8.16409 0,5.22787 3.365894,8.73699 3.365893,3.43751 8.45054,3.43751 5.084649,0 8.450539,-3.43751 3.36589,-3.50912 3.36589,-8.73699 0,-4.72658 -3.50912,-8.16409 -3.50912,-3.4375 -8.307309,-3.4375 z"
         id="path3107" />
    </g>
    <g
       aria-label="8"
       transform="matrix(0.26458333,0,0,0.26458333,-1.0218774,232.82684)"
       id="text26913"
       style="font-size:146.667px;line-height:1.25;font-family:'Bauhaus 93';-inkscape-font-specification:'Bauhaus 93, ';white-space:pre;shape-inside:url(#rect26915)">
      <path
         d="m 121.26838,144.38149 q 6.08726,6.3021 8.37893,11.60159 2.29167,5.29949 2.29167,12.89066 0,14.53779 -9.95445,24.2774 -9.88284,9.7396 -24.707089,9.7396 -14.895868,0 -24.850319,-9.7396 -9.882835,-9.73961 -9.882835,-24.2774 0,-7.37632 2.363287,-12.89066 2.434901,-5.51433 8.307311,-11.60159 -5.299492,-7.01824 -5.299492,-15.61201 0,-12.38935 8.235696,-20.41021 8.235697,-8.09246 20.983122,-8.09246 12.890659,0 21.126349,8.02085 8.30731,8.02085 8.30731,20.55343 0,8.45054 -5.29949,15.5404 z M 96.919367,121.24993 q -3.222664,0 -5.585951,2.36328 -2.291672,2.36329 -2.291672,5.51434 0,3.65235 2.291672,6.01564 2.291672,2.36329 5.87241,2.36329 3.222664,0 5.514334,-2.43491 2.36329,-2.4349 2.36329,-5.72918 0,-3.4375 -2.36329,-5.72918 -2.36329,-2.36328 -5.800793,-2.36328 z m 0.214844,36.45191 q -4.869803,0 -8.378926,3.4375 -3.437508,3.3659 -3.437508,8.16409 0,5.22787 3.365894,8.73699 3.365893,3.43751 8.45054,3.43751 5.084649,0 8.450539,-3.43751 3.36589,-3.50912 3.36589,-8.73699 0,-4.72658 -3.50912,-8.16409 -3.50912,-3.4375 -8.307309,-3.4375 z"
         id="path3170" />
    </g>
    <g
       aria-label="8"
       transform="matrix(0.26458333,0,0,0.26458333,149.97812,232.82684)"
       id="text26917"
       style="font-size:146.667px;line-height:1.25;font-family:'Bauhaus 93';-inkscape-font-specification:'Bauhaus 93, ';white-space:pre;shape-inside:url(#rect26919)">
      <path
         d="m 121.26838,144.38149 q 6.08726,6.3021 8.37893,11.60159 2.29167,5.29949 2.29167,12.89066 0,14.53779 -9.95445,24.2774 -9.88284,9.7396 -24.707089,9.7396 -14.895868,0 -24.850319,-9.7396 -9.882835,-9.73961 -9.882835,-24.2774 0,-7.37632 2.363287,-12.89066 2.434901,-5.51433 8.307311,-11.60159 -5.299492,-7.01824 -5.299492,-15.61201 0,-12.38935 8.235696,-20.41021 8.235697,-8.09246 20.983122,-8.09246 12.890659,0 21.126349,8.02085 8.30731,8.02085 8.30731,20.55343 0,8.45054 -5.29949,15.5404 z M 96.919367,121.24993 q -3.222664,0 -5.585951,2.36328 -2.291672,2.36329 -2.291672,5.51434 0,3.65235 2.291672,6.01564 2.291672,2.36329 5.87241,2.36329 3.222664,0 5.514334,-2.43491 2.36329,-2.4349 2.36329,-5.72918 0,-3.4375 -2.36329,-5.72918 -2.36329,-2.36328 -5.800793,-2.36328 z m 0.214844,36.45191 q -4.869803,0 -8.378926,3.4375 -3.437508,3.3659 -3.437508,8.16409 0,5.22787 3.365894,8.73699 3.365893,3.43751 8.45054,3.43751 5.084649,0 8.450539,-3.43751 3.36589,-3.50912 3.36589,-8.73699 0,-4.72658 -3.50912,-8.16409 -3.50912,-3.4375 -8.307309,-3.4375 z"
         id="path3149" />
    </g>
  </g>
</svg>
