<?xml version="1.0" encoding="UTF-8" standalone="no"?>
<!-- Created with Inkscape (http://www.inkscape.org/) -->

<svg
   width="200mm"
   height="300mm"
   viewBox="0 0 199.99999 300"
   version="1.1"
   id="svg5"
   inkscape:version="1.1.2 (b8e25be833, 2022-02-05)"
   sodipodi:docname="y11.svg"
   xmlns:inkscape="http://www.inkscape.org/namespaces/inkscape"
   xmlns:sodipodi="http://sodipodi.sourceforge.net/DTD/sodipodi-0.dtd"
   xmlns="http://www.w3.org/2000/svg"
   xmlns:svg="http://www.w3.org/2000/svg">
  <sodipodi:namedview
     id="namedview7"
     pagecolor="#5f5f5f"
     bordercolor="#666666"
     borderopacity="1.0"
     inkscape:pageshadow="2"
     inkscape:pageopacity="0"
     inkscape:pagecheckerboard="0"
     inkscape:document-units="mm"
     showgrid="false"
     width="200mm"
     units="mm"
     inkscape:zoom="0.43334728"
     inkscape:cx="-17.307135"
     inkscape:cy="626.5183"
     inkscape:window-width="1920"
     inkscape:window-height="1001"
     inkscape:window-x="-9"
     inkscape:window-y="-9"
     inkscape:window-maximized="1"
     inkscape:current-layer="layer1"
     showguides="false" />
  <defs
     id="defs2">
    <rect
       x="55.597632"
       y="65.636094"
       width="142.08284"
       height="176.83136"
       id="rect6486" />
    <rect
       x="173.46312"
       y="618.43373"
       width="60.334998"
       height="340.89274"
       id="rect59061" />
    <rect
       x="134.24537"
       y="146.31237"
       width="518.88098"
       height="828.09784"
       id="rect51299" />
    <rect
       x="143.29562"
       y="217.20599"
       width="497.76373"
       height="580.72435"
       id="rect28727" />
    <rect
       x="266.98236"
       y="467.59623"
       width="196.08874"
       height="197.59712"
       id="rect2865" />
    <rect
       x="55.597632"
       y="65.636094"
       width="105.01775"
       height="138.22189"
       id="rect18968" />
    <rect
       x="55.597632"
       y="65.636094"
       width="105.01775"
       height="138.22189"
       id="rect18974" />
    <rect
       x="55.597632"
       y="65.636094"
       width="105.01775"
       height="138.22189"
       id="rect18980" />
    <rect
       x="55.597632"
       y="65.636094"
       width="142.08284"
       height="176.83136"
       id="rect26911" />
    <rect
       x="55.597632"
       y="65.636094"
       width="142.08284"
       height="176.83136"
       id="rect26915" />
    <rect
       x="55.597632"
       y="65.636094"
       width="142.08284"
       height="176.83136"
       id="rect26919" />
  </defs>
  <g
     inkscape:label="Layer 1"
     inkscape:groupmode="layer"
     id="layer1"
     style="display:inline">
    <rect
       style="fill:#ffff00;fill-opacity:1;fill-rule:evenodd;stroke-width:0.209172"
       id="rect31"
       width="150"
       height="250"
       x="25"
       y="25" />
    <text
       xml:space="preserve"
       transform="scale(0.26458333)"
       id="text28725"
       style="font-style:normal;font-weight:normal;font-size:40px;line-height:1.25;font-family:sans-serif;white-space:pre;shape-inside:url(#rect28727);fill:#000000;fill-opacity:1;stroke:none" />
    <text
       xml:space="preserve"
       transform="scale(0.26458333)"
       id="text51297"
       style="font-style:normal;font-weight:normal;font-size:66.6667px;line-height:1.25;font-family:sans-serif;white-space:pre;shape-inside:url(#rect51299);fill:#000000;fill-opacity:1;stroke:none" />
    <text
       xml:space="preserve"
       transform="scale(0.26458333)"
       id="text59059"
       style="font-style:normal;font-weight:normal;font-size:40px;line-height:1.25;font-family:sans-serif;white-space:pre;shape-inside:url(#rect59061);fill:#000000;fill-opacity:1;stroke:none" />
  </g>
  <g
     inkscape:groupmode="layer"
     id="layer2"
     inkscape:label="Layer 2"
     style="display:inline">
    <path
       id="rect97567"
       style="fill:#ffffff;stroke-width:0.999999"
       d="M 94.488281,0 0,94.488281 V 1039.3691 l 94.488281,94.4883 H 661.41797 l 94.48828,-94.4883 V 94.488281 L 661.41797,0 Z m 94.488279,94.488281 h 377.95313 l 94.48828,94.488279 v 755.90625 l -94.48828,94.48629 H 188.97656 L 94.488281,944.88281 V 188.97656 Z"
       transform="scale(0.26458333)" />
  </g>
  <g
     inkscape:groupmode="layer"
     id="layer3"
     inkscape:label="Layer 3">
    <path
       d="m 67.191754,182.38693 c -17.981112,-15.37325 -23.012759,-32.2932 0.306497,-52.71665 l 4.16324,-3.65585 v 0 l 0.485286,-0.42182 c 2.784007,-2.46067 5.465857,-5.09709 8.275408,-7.7218 0.268171,-0.25777 0.383107,-0.56241 0.332029,-0.90222 -0.05116,-0.33981 -0.242639,-0.60931 -0.587451,-0.78507 l -10.293165,-5.71811 c -0.446977,-0.24607 -0.676846,-0.6796 -0.574683,-1.13658 0.10217,-0.45698 0.498058,-0.78507 1.008884,-0.86709 14.596883,-2.20287 29.168237,-4.38231 43.752351,-6.64377 0.42142,-0.0585 0.79176,0.0468 1.09827,0.30464 0.29374,0.24605 0.40866,0.59759 0.33202,0.94913 l -7.59854,38.36282 c -0.0893,0.46868 -0.47251,0.8085 -0.98336,0.89053 -0.51081,0.082 -0.99611,-0.11706 -1.28982,-0.50385 l -6.513044,-9.03415 c -0.2171,-0.29294 -0.51082,-0.4804 -0.90672,-0.52727 -0.3959,-0.0352 -0.74071,0.0704 -1.02166,0.30464 -2.95003,2.49581 -5.963909,4.74556 -8.837299,7.20622 l -0.472514,0.43353 c -23.217093,20.35317 -20.50971,23.2005 -20.675729,42.18272 z m 65.309226,-12.06894 -4.16322,3.66756 v 0 l -0.49806,0.42184 c -2.77124,2.48408 -5.46584,5.09706 -8.26262,7.72179 -0.26818,0.24605 -0.39591,0.55069 -0.34484,0.90222 0.0509,0.32809 0.25543,0.60932 0.60024,0.78507 l 10.29317,5.71811 c 0.45975,0.24606 0.67684,0.67961 0.5747,1.13657 -0.10217,0.45701 -0.49806,0.78509 -1.00892,0.86711 -14.5841,2.20286 -29.16821,4.38231 -43.752329,6.64376 -0.421421,0.0585 -0.791779,-0.0468 -1.098277,-0.30466 -0.293718,-0.25778 -0.421422,-0.59756 -0.33203,-0.96082 l 7.598552,-38.37455 c 0.0893,-0.45697 0.47251,-0.78506 0.98334,-0.86709 0.51082,-0.0937 1.00889,0.10534 1.28984,0.49213 l 6.525834,9.03415 c 0.20425,0.28118 0.51081,0.46869 0.89393,0.50383 0.38312,0.0585 0.74069,-0.0468 1.02166,-0.29293 2.93724,-2.4958 5.9639,-4.74558 8.82453,-7.21793 l 0.48528,-0.42183 h 0.0255 c 23.21709,-20.35314 20.50969,-23.20049 20.66295,-42.1827 17.98111,15.38494 22.98722,32.30492 -0.31928,52.72837 z"
       id="path9445"
       style="stroke:#ffffff;stroke-width:3.61465;stroke-miterlimit:4;stroke-dasharray:none;stroke-opacity:1"
       sodipodi:nodetypes="cccccccccscccccccccccccccccccccsccccccccccccccsc" />
    <path
       d="m 18.249019,31.101431 c -3.797336,-3.071692 -4.859941,-6.452427 0.06471,-10.533186 l 0.879214,-0.730466 v 0 l 0.102462,-0.08426 c 0.58794,-0.49166 1.154306,-1.018436 1.747643,-1.542873 0.0566,-0.05154 0.0809,-0.112376 0.07013,-0.180271 -0.01074,-0.06786 -0.05127,-0.121745 -0.124063,-0.156864 L 18.815366,16.73098 c -0.09445,-0.0492 -0.142938,-0.13579 -0.121364,-0.227095 0.02153,-0.09129 0.105172,-0.156864 0.21306,-0.173251 3.082638,-0.440152 6.159886,-0.875622 9.239827,-1.327478 0.089,-0.01171 0.167206,0.0093 0.231938,0.06083 0.06204,0.0492 0.08635,0.119403 0.07013,0.189643 l -1.604694,7.665183 c -0.01885,0.09363 -0.09977,0.161543 -0.207668,0.177933 -0.10788,0.01639 -0.210363,-0.02343 -0.272392,-0.100672 l -1.375454,-1.805091 c -0.04583,-0.0585 -0.10788,-0.09598 -0.191484,-0.105353 -0.08357,-0.007 -0.156425,0.01407 -0.215757,0.06082 -0.623004,0.498682 -1.259488,0.948196 -1.866305,1.439855 l -0.09977,0.0866 c -4.903091,4.066719 -4.331332,4.635634 -4.366395,8.428425 z m 13.792313,-2.411465 -0.879208,0.732808 v 0 l -0.105175,0.08426 c -0.585247,0.496339 -1.154303,1.018436 -1.744938,1.542873 -0.0566,0.04921 -0.08357,0.110035 -0.07281,0.180271 0.01074,0.06551 0.05394,0.121747 0.126762,0.156858 l 2.173759,1.142527 c 0.0971,0.04921 0.142939,0.135794 0.121371,0.227095 -0.02157,0.0913 -0.105188,0.156865 -0.21307,0.173255 -3.07994,0.440149 -6.159882,0.875618 -9.239824,1.327472 -0.089,0.0117 -0.167211,-0.0094 -0.23194,-0.06084 -0.06203,-0.05154 -0.089,-0.1194 -0.07013,-0.191979 l 1.60469,-7.667532 c 0.01884,-0.09129 0.09977,-0.156861 0.207668,-0.173247 0.107877,-0.01875 0.213059,0.02106 0.272393,0.09832 l 1.378152,1.805092 c 0.04315,0.05617 0.107882,0.09363 0.188784,0.100666 0.0809,0.0117 0.156424,-0.0093 0.215761,-0.05849 0.620303,-0.498678 1.259486,-0.948199 1.863608,-1.442194 l 0.102477,-0.08426 h 0.0051 c 4.903094,-4.06671 4.331333,-4.635632 4.363697,-8.428422 3.797341,3.074028 4.854554,6.454765 -0.06743,10.535527 z"
       id="path9445-5"
       style="stroke:#ffffff;stroke-width:0;stroke-miterlimit:4;stroke-dasharray:none;stroke-opacity:1"
       sodipodi:nodetypes="cccccccccscccccccccccccccccccccsccccccccccccccsc" />
    <path
       d="m 18.249019,281.10143 c -3.797336,-3.07169 -4.859941,-6.45243 0.06471,-10.53318 l 0.879214,-0.73047 v 0 l 0.102462,-0.0843 c 0.58794,-0.49166 1.154306,-1.01844 1.747643,-1.54287 0.0566,-0.0515 0.0809,-0.11238 0.07013,-0.18027 -0.01074,-0.0679 -0.05127,-0.12175 -0.124063,-0.15687 l -2.173749,-1.14253 c -0.09445,-0.0492 -0.142938,-0.13579 -0.121364,-0.22709 0.02153,-0.0913 0.105172,-0.15687 0.21306,-0.17326 3.082638,-0.44015 6.159886,-0.87562 9.239827,-1.32747 0.089,-0.0117 0.167206,0.009 0.231938,0.0608 0.06204,0.0492 0.08635,0.1194 0.07013,0.18964 l -1.604694,7.66518 c -0.01885,0.0936 -0.09977,0.16155 -0.207668,0.17794 -0.10788,0.0164 -0.210363,-0.0234 -0.272392,-0.10068 l -1.375454,-1.80509 c -0.04583,-0.0585 -0.10788,-0.096 -0.191484,-0.10535 -0.08357,-0.007 -0.156425,0.0141 -0.215757,0.0608 -0.623004,0.49868 -1.259488,0.9482 -1.866305,1.43985 l -0.09977,0.0866 c -4.903091,4.06672 -4.331332,4.63564 -4.366395,8.42843 z m 13.792313,-2.41146 -0.879208,0.7328 v 0 l -0.105175,0.0843 c -0.585247,0.49634 -1.154303,1.01844 -1.744938,1.54288 -0.0566,0.0492 -0.08357,0.11003 -0.07281,0.18027 0.01074,0.0655 0.05394,0.12175 0.126762,0.15686 l 2.173759,1.14252 c 0.0971,0.0492 0.142939,0.1358 0.121371,0.2271 -0.02157,0.0913 -0.105188,0.15686 -0.21307,0.17325 -3.07994,0.44015 -6.159882,0.87562 -9.239824,1.32748 -0.089,0.0117 -0.167211,-0.009 -0.23194,-0.0608 -0.06203,-0.0515 -0.089,-0.1194 -0.07013,-0.19198 l 1.60469,-7.66754 c 0.01884,-0.0913 0.09977,-0.15686 0.207668,-0.17324 0.107877,-0.0188 0.213059,0.0211 0.272393,0.0983 l 1.378152,1.80509 c 0.04315,0.0562 0.107882,0.0936 0.188784,0.10067 0.0809,0.0117 0.156424,-0.009 0.215761,-0.0585 0.620303,-0.49868 1.259486,-0.9482 1.863608,-1.4422 l 0.102477,-0.0843 h 0.0051 c 4.903094,-4.06671 4.331333,-4.63563 4.363697,-8.42842 3.797341,3.07403 4.854554,6.45476 -0.06743,10.53553 z"
       id="path9445-5-5"
       style="stroke:#ffffff;stroke-width:0;stroke-miterlimit:4;stroke-dasharray:none;stroke-opacity:1"
       sodipodi:nodetypes="cccccccccscccccccccccccccccccccsccccccccccccccsc" />
    <path
       d="m 168.24902,31.101487 c -3.79734,-3.07169 -4.85994,-6.45243 0.0647,-10.53318 l 0.87921,-0.73047 v 0 l 0.10247,-0.0843 c 0.58794,-0.49166 1.1543,-1.01844 1.74764,-1.54287 0.0566,-0.0515 0.0809,-0.11238 0.0701,-0.18027 -0.0107,-0.0679 -0.0513,-0.12175 -0.12406,-0.15687 l -2.17375,-1.14253 c -0.0944,-0.0492 -0.14294,-0.13579 -0.12137,-0.22709 0.0215,-0.0913 0.10517,-0.15687 0.21306,-0.17326 3.08264,-0.44015 6.15989,-0.87562 9.23983,-1.32747 0.089,-0.0117 0.16721,0.009 0.23194,0.0608 0.062,0.0492 0.0864,0.1194 0.0701,0.18964 l -1.6047,7.66518 c -0.0188,0.0936 -0.0998,0.16155 -0.20766,0.17794 -0.10788,0.0164 -0.21037,-0.0234 -0.2724,-0.10068 l -1.37545,-1.80509 c -0.0458,-0.0585 -0.10788,-0.096 -0.19148,-0.10535 -0.0836,-0.007 -0.15643,0.0141 -0.21576,0.0608 -0.62301,0.49868 -1.25949,0.9482 -1.86631,1.43985 l -0.0998,0.0866 c -4.90309,4.06672 -4.33133,4.63564 -4.36639,8.42843 z m 13.79231,-2.41146 -0.87921,0.7328 v 0 l -0.10517,0.0843 c -0.58525,0.49634 -1.1543,1.01844 -1.74494,1.54288 -0.0566,0.0492 -0.0836,0.11003 -0.0728,0.18027 0.0107,0.0655 0.0539,0.12175 0.12676,0.15686 l 2.17376,1.14252 c 0.0971,0.0492 0.14294,0.1358 0.12137,0.2271 -0.0216,0.0913 -0.10518,0.15686 -0.21307,0.17325 -3.07994,0.44015 -6.15988,0.87562 -9.23982,1.32748 -0.089,0.0117 -0.16721,-0.009 -0.23194,-0.0608 -0.062,-0.0515 -0.089,-0.1194 -0.0701,-0.19198 l 1.60469,-7.66754 c 0.0188,-0.0913 0.0998,-0.15686 0.20767,-0.17324 0.10787,-0.0188 0.21306,0.0211 0.27239,0.0983 l 1.37815,1.80509 c 0.0431,0.0562 0.10788,0.0936 0.18879,0.10067 0.0809,0.0117 0.15642,-0.009 0.21576,-0.0585 0.6203,-0.49868 1.25948,-0.9482 1.86361,-1.4422 l 0.10247,-0.0843 h 0.005 c 4.9031,-4.06671 4.33134,-4.63563 4.3637,-8.42842 3.79734,3.07403 4.85455,6.45476 -0.0674,10.53553 z"
       id="path9445-5-1"
       style="stroke:#ffffff;stroke-width:0;stroke-miterlimit:4;stroke-dasharray:none;stroke-opacity:1"
       sodipodi:nodetypes="cccccccccscccccccccccccccccccccsccccccccccccccsc" />
    <path
       d="m 168.24902,281.10149 c -3.79734,-3.07169 -4.85994,-6.45243 0.0647,-10.53318 l 0.87921,-0.73047 v 0 l 0.10247,-0.0843 c 0.58794,-0.49166 1.1543,-1.01844 1.74764,-1.54287 0.0566,-0.0515 0.0809,-0.11238 0.0701,-0.18027 -0.0107,-0.0679 -0.0513,-0.12175 -0.12406,-0.15687 l -2.17375,-1.14253 c -0.0944,-0.0492 -0.14294,-0.13579 -0.12137,-0.22709 0.0215,-0.0913 0.10517,-0.15687 0.21306,-0.17326 3.08264,-0.44015 6.15989,-0.87562 9.23983,-1.32747 0.089,-0.0117 0.16721,0.009 0.23194,0.0608 0.062,0.0492 0.0864,0.1194 0.0701,0.18964 l -1.6047,7.66518 c -0.0188,0.0936 -0.0998,0.16155 -0.20766,0.17794 -0.10788,0.0164 -0.21037,-0.0234 -0.2724,-0.10068 l -1.37545,-1.80509 c -0.0458,-0.0585 -0.10788,-0.096 -0.19148,-0.10535 -0.0836,-0.007 -0.15643,0.0141 -0.21576,0.0608 -0.62301,0.49868 -1.25949,0.9482 -1.86631,1.43985 l -0.0998,0.0866 c -4.90309,4.06672 -4.33133,4.63564 -4.36639,8.42843 z m 13.79231,-2.41146 -0.87921,0.7328 v 0 l -0.10517,0.0843 c -0.58525,0.49634 -1.1543,1.01844 -1.74494,1.54288 -0.0566,0.0492 -0.0836,0.11003 -0.0728,0.18027 0.0107,0.0655 0.0539,0.12175 0.12676,0.15686 l 2.17376,1.14252 c 0.0971,0.0492 0.14294,0.1358 0.12137,0.2271 -0.0216,0.0913 -0.10518,0.15686 -0.21307,0.17325 -3.07994,0.44015 -6.15988,0.87562 -9.23982,1.32748 -0.089,0.0117 -0.16721,-0.009 -0.23194,-0.0608 -0.062,-0.0515 -0.089,-0.1194 -0.0701,-0.19198 l 1.60469,-7.66754 c 0.0188,-0.0913 0.0998,-0.15686 0.20767,-0.17324 0.10787,-0.0188 0.21306,0.0211 0.27239,0.0983 l 1.37815,1.80509 c 0.0431,0.0562 0.10788,0.0936 0.18879,0.10067 0.0809,0.0117 0.15642,-0.009 0.21576,-0.0585 0.6203,-0.49868 1.25948,-0.9482 1.86361,-1.4422 l 0.10247,-0.0843 h 0.005 c 4.9031,-4.06671 4.33134,-4.63563 4.3637,-8.42842 3.79734,3.07403 4.85455,6.45476 -0.0674,10.53553 z"
       id="path9445-5-1-8"
       style="stroke:#ffffff;stroke-width:0;stroke-miterlimit:4;stroke-dasharray:none;stroke-opacity:1"
       sodipodi:nodetypes="cccccccccscccccccccccccccccccccsccccccccccccccsc" />
  </g>
</svg>
